<svg xmlns="http://www.w3.org/2000/svg" xmlns:xlink="http://www.w3.org/1999/xlink" viewBox="0 0 430 430" width="430" height="430" preserveAspectRatio="xMidYMid meet" style="width: 100%; height: 100%; transform: translate3d(0px, 0px, 0px); content-visibility: visible;"><defs><clipPath id="__lottie_element_2043"><rect width="430" height="430" x="0" y="0"/></clipPath><clipPath id="__lottie_element_2045"><path d="M0,0 L430,0 L430,430 L0,430z"/></clipPath></defs><g clip-path="url(#__lottie_element_2043)"><g clip-path="url(#__lottie_element_2045)" transform="matrix(1,0,0,1,0,0)" opacity="1" style="display: block;"><g transform="matrix(1,0,0,1,235,232)" opacity="1" style="display: block;"><g opacity="1" transform="matrix(1,0,0,1,0,0)"><path stroke-linecap="round" stroke-linejoin="round" fill-opacity="0" class="primary" stroke="rgb(232,57,47)" stroke-opacity="1" stroke-width="6.3" d=" M-146.28799438476562,12.746000289916992 C-146.28799438476562,12.746000289916992 -57.84600067138672,102.802001953125 -23.176000595092773,112.3010025024414 C-1.9730000495910645,118.11000061035156 4.416999816894531,107.65399932861328 4.416999816894531,107.65399932861328 M-48.44599914550781,50.724998474121094 C-0.8109999895095825,104.16899871826172 6.724999904632568,116.6449966430664 21.263999938964844,108.81600189208984 C28.81599998474121,104.75 35.20500183105469,96.03600311279297 38.11000061035156,91.0979995727539 M-13.057000160217285,35.952999114990234 C34.577999114990234,89.39700317382812 42.11399841308594,101.87300109863281 56.65299987792969,94.04399871826172 C64.20500183105469,89.97799682617188 70.59400177001953,81.26399993896484 73.4990005493164,76.32599639892578 M14.82699966430664,17.363000869750977 C62.46200180053711,70.80699920654297 69.99700164794922,83.28399658203125 84.53600311279297,75.45500183105469 C86.10900115966797,74.60800170898438 90.85900115966797,70.63300323486328 92.18800354003906,69.04000091552734 C99.79399871826172,59.91999816894531 95.31099700927734,47.24700164794922 86.69599914550781,39.07400131225586 C68.21099853515625,21.535999298095703 24.2450008392334,-17.698999404907227 -0.5370000004768372,-38.17100143432617 C-0.5370000004768372,-38.17100143432617 -32.18000030517578,-8.23799991607666 -54.54499816894531,-9.6899995803833 C-76.91000366210938,-11.142000198364258 -76.5780029296875,-33.21699905395508 -70.93499755859375,-45.41600036621094 C-65.29199981689453,-57.6150016784668 -32.47100067138672,-93.9229965209961 -10.97700023651123,-94.21299743652344 C10.517000198364258,-94.50299835205078 78.33699798583984,-79.10900115966797 78.33699798583984,-79.10900115966797 M-118.73600006103516,-84.0469970703125 C-118.73600006103516,-84.0469970703125 -36.24700164794922,-84.0469970703125 -36.24700164794922,-84.0469970703125 M115.35099792480469,26.56100082397461 C115.35099792480469,26.56100082397461 91.93399810791016,45.415000915527344 91.93399810791016,45.415000915527344"/></g><g opacity="1" transform="matrix(1,0,0,1,0,0)"><path stroke-linecap="round" stroke-linejoin="round" fill-opacity="0" class="secondary" stroke="rgb(35,35,35)" stroke-opacity="1" stroke-width="6.3" d=" M-201.51600646972656,-117.14299774169922 C-201.51600646972656,-117.14299774169922 -201.51600646972656,32.66299819946289 -201.51600646972656,32.66299819946289 C-201.51600646972656,32.66299819946289 -151.55799865722656,32.66299819946289 -151.55799865722656,32.66299819946289 C-151.55799865722656,32.66299819946289 -116.12200164794922,-101.26300048828125 -116.12200164794922,-101.26300048828125 C-116.12200164794922,-101.26300048828125 -128.12600708007812,-108.73699951171875 -158.81900024414062,-114.25399780273438 C-179.82899475097656,-118.02999877929688 -201.51600646972656,-117.14299774169922 -201.51600646972656,-117.14299774169922z M168.75399780273438,-117.14299774169922 C168.75399780273438,-117.14299774169922 168.75399780273438,32.66299819946289 168.75399780273438,32.66299819946289 C168.75399780273438,32.66299819946289 118.7959976196289,32.66299819946289 118.7959976196289,32.66299819946289 C118.7959976196289,32.66299819946289 75.28800201416016,-87.53199768066406 75.28800201416016,-87.53199768066406 C75.28800201416016,-87.53199768066406 90.39199829101562,-106.12100219726562 126.05699920654297,-114.25399780273438 C146.86900329589844,-119 168.75399780273438,-117.14299774169922 168.75399780273438,-117.14299774169922z"/></g><g opacity="1" transform="matrix(1,0,0,1,0,0)"><path class="secondary" fill="rgb(35,35,35)" fill-opacity="1" d=" M-153.00999450683594,-79.10900115966797 C-153.00999450683594,-73.33399963378906 -157.6909942626953,-68.65299987792969 -163.46600341796875,-68.65299987792969 C-169.24099731445312,-68.65299987792969 -173.92300415039062,-73.33399963378906 -173.92300415039062,-79.10900115966797 C-173.92300415039062,-84.88400268554688 -169.24099731445312,-89.56500244140625 -163.46600341796875,-89.56500244140625 C-157.6909942626953,-89.56500244140625 -153.00999450683594,-84.88400268554688 -153.00999450683594,-79.10900115966797z M120.24800109863281,-79.10900115966797 C120.24800109863281,-73.33399963378906 124.93000030517578,-68.65299987792969 130.7050018310547,-68.65299987792969 C136.47999572753906,-68.65299987792969 141.16099548339844,-73.33399963378906 141.16099548339844,-79.10900115966797 C141.16099548339844,-84.88400268554688 136.47999572753906,-89.56500244140625 130.7050018310547,-89.56500244140625 C124.93000030517578,-89.56500244140625 120.24800109863281,-84.88400268554688 120.24800109863281,-79.10900115966797z"/></g></g></g></g></svg>