<svg xmlns="http://www.w3.org/2000/svg" xmlns:xlink="http://www.w3.org/1999/xlink" viewBox="0 0 430 430" width="430" height="430" preserveAspectRatio="xMidYMid meet" style="width: 100%; height: 100%; transform: translate3d(0px, 0px, 0px); content-visibility: visible;"><defs><clipPath id="__lottie_element_633"><rect width="430" height="430" x="0" y="0"/></clipPath><clipPath id="__lottie_element_635"><path d="M0,0 L430,0 L430,430 L0,430z"/></clipPath></defs><g clip-path="url(#__lottie_element_633)"><g clip-path="url(#__lottie_element_635)" transform="matrix(1,0,0,1,0,0)" opacity="1" style="display: block;"><g transform="matrix(1,0,0,1,215,217)" opacity="1" style="display: none;"><g opacity="1" transform="matrix(1,0,0,1,0,0)"><path stroke-linecap="round" stroke-linejoin="round" fill-opacity="0" class="secondary" stroke="rgb(35,35,35)" stroke-opacity="1" stroke-width="6" d="M0 0"/></g></g><g transform="matrix(1,0,0,1,215,217)" opacity="1" style="display: none;"><g opacity="1" transform="matrix(1,0,0,1,0,0)"><path stroke-linecap="round" stroke-linejoin="round" fill-opacity="0" class="secondary" stroke="rgb(35,35,35)" stroke-opacity="1" stroke-width="6" d="M0 0"/></g></g><g transform="matrix(1,0,0,1,215,217)" opacity="1" style="display: block;"><g opacity="1" transform="matrix(1,0,0,1,0,0)"><path stroke-linecap="round" stroke-linejoin="round" fill-opacity="0" class="secondary" stroke="rgb(35,35,35)" stroke-opacity="1" stroke-width="6" d=" M171.3070068359375,130.5 C136.22900390625,130.5 57.95000076293945,130.5 -16.326000213623047,130.5"/></g></g><g transform="matrix(0.9999276399612427,-0.012027859687805176,0.012027859687805176,0.9999276399612427,160.2124786376953,145.62705993652344)" opacity="1" style="display: block;"><g opacity="1" transform="matrix(1,0,0,1,0,0)"><path stroke-linecap="round" stroke-linejoin="round" fill-opacity="0" class="secondary" stroke="rgb(35,35,35)" stroke-opacity="1" stroke-width="6" d=" M30,-55 C30,-18.33300018310547 37.508056640625,49.76171875 37.508056640625,49.76171875 C37.508056640625,49.76171875 4.98034143447876,29.191293716430664 4.98034143447876,29.191293716430664 C4.98034143447876,29.191293716430664 -21.118614196777344,57.47599411010742 -21.118614196777344,57.47599411010742 C-21.118614196777344,57.47599411010742 -30,-18.33300018310547 -30,-55"/></g></g><g transform="matrix(0.9999276399612427,-0.012027859687805176,0.012027859687805176,0.9999276399612427,6.539581298828125,7.465423583984375)" opacity="1" style="display: block;"><g opacity="1" transform="matrix(1,0,0,1,335,230)"><g opacity="1" transform="matrix(1,0,0,1,0,0)"><path stroke-linecap="round" stroke-linejoin="round" fill-opacity="0" class="primary" stroke="rgb(232,57,47)" stroke-opacity="1" stroke-width="6" d=" M-30,85 C-30,85 -65,85 -65,85 M35,85 C35,85 65,85 65,85 C65,85 65,15.371999740600586 65,15.371999740600586 C65,11.852999687194824 64.0719985961914,8.395999908447266 62.308998107910156,5.35099983215332 C62.308998107910156,5.35099983215332 15.777000427246094,-75.02100372314453 15.777000427246094,-75.02100372314453 C12.201000213623047,-81.1969985961914 5.605999946594238,-85 -1.531000018119812,-85 C-1.531000018119812,-85 -65,-85 -65,-85"/></g></g><g opacity="1" transform="matrix(1,0,0,1,152.5,200)"><g opacity="1" transform="matrix(1,0,0,1,0,0)"><path stroke-linecap="round" stroke-linejoin="round" fill-opacity="0" class="primary" stroke="rgb(232,57,47)" stroke-opacity="1" stroke-width="6" d=" M-77.5,115 C-77.5,115 -117.5,115 -117.5,115 C-117.5,115 -117.5,-115 -117.5,-115 C-117.5,-115 117.5,-115 117.5,-115 C117.5,-115 117.5,115 117.5,115 C117.5,115 -12.5,115 -12.5,115"/></g></g><g opacity="1" transform="matrix(1,0,0,1,357.13299560546875,210)"><g opacity="1" transform="matrix(1,0,0,1,0,0)"><path stroke-linecap="round" stroke-linejoin="round" fill-opacity="0" class="primary" stroke="rgb(232,57,47)" stroke-opacity="1" stroke-width="6" d=" M42.132999420166016,30 C42.132999420166016,30 -42.132999420166016,30 -42.132999420166016,30 C-42.132999420166016,30 -42.132999420166016,-30 -42.132999420166016,-30 C-42.132999420166016,-30 8.130999565124512,-30 8.130999565124512,-30"/></g></g></g><g transform="matrix(1,0,0,1,10.023956298828125,0)" opacity="1" style="display: block;"><g opacity="1" transform="matrix(1,0,0,1,337.5,315)"><g opacity="1" transform="matrix(1,0,0,1,0,0)"><path stroke-linecap="butt" stroke-linejoin="round" fill-opacity="0" class="primary" stroke="rgb(232,57,47)" stroke-opacity="1" stroke-width="6" d=" M0,32.5 C17.948999404907227,32.5 32.5,17.948999404907227 32.5,0 C32.5,-17.948999404907227 17.948999404907227,-32.5 0,-32.5 C-17.948999404907227,-32.5 -32.5,-17.948999404907227 -32.5,0 C-32.5,17.948999404907227 -17.948999404907227,32.5 0,32.5z"/></g></g><g opacity="1" transform="matrix(1,0,0,1,107.5,315)"><g opacity="1" transform="matrix(1,0,0,1,0,0)"><path stroke-linecap="butt" stroke-linejoin="round" fill-opacity="0" class="primary" stroke="rgb(232,57,47)" stroke-opacity="1" stroke-width="6" d=" M0,-32.5 C17.936750411987305,-32.5 32.5,-17.936750411987305 32.5,0 C32.5,17.936750411987305 17.936750411987305,32.5 0,32.5 C-17.936750411987305,32.5 -32.5,17.936750411987305 -32.5,0 C-32.5,-17.936750411987305 -17.936750411987305,-32.5 0,-32.5z"/></g></g></g></g></g></svg>